<svg xmlns="http://www.w3.org/2000/svg" width="21.872mm" height="9.172mm" viewBox="0 0 62 26"><g id="bb136b4d-606f-4ff8-b86f-6c9807bd9167" data-name="レイヤー 2"><g id="a0fd3517-4531-4619-9695-023613a8126a" data-name="レイヤー 1"><rect x="0.283" y="0.277" width="23.197" height="25.421" fill="#fff"/><rect x="22.913" y="0.289" width="38.803" height="25.421" fill="#921d33"/><path d="M62,26H0V0H62ZM1,25H61V1H1Z" fill="#231815"/><path d="M30.7,7.6V8a10.3,10.3,0,0,1,2.549,1.663l-1.011,1.2A6.507,6.507,0,0,0,30.7,9.429v2.624H29.14V9.336a10.482,10.482,0,0,1-2.59,2.575l-.864-1.427a12.407,12.407,0,0,0,1.948-1.441A7.36,7.36,0,0,0,28.93,7.6h-2.7V6.01H29.14V4.486H30.7V6.01h2.4V7.6Zm4,9.44v3.4a1.128,1.128,0,0,1-.506,1.066,3.5,3.5,0,0,1-1.664.293H31.269l-.421-1.757q1.284.069,1.874.069c.2,0,.3-.078.3-.234V17.042H25.939V15.4H41.55v1.64Zm-4.234.421,1.179,1.126a18.661,18.661,0,0,1-4.8,2.857l-.884-1.57a20.236,20.236,0,0,0,2.474-1.088A11.422,11.422,0,0,0,30.469,17.463ZM27.54,14.185V12.591H39.97v1.594ZM38.285,7.6A8.409,8.409,0,0,0,39.674,9a12.934,12.934,0,0,0,2.191,1.51l-.947,1.43a12.251,12.251,0,0,1-2.845-2.672v2.788h-1.56V9.384a10.4,10.4,0,0,1-2.569,2.6l-.949-1.452a11.877,11.877,0,0,0,1.908-1.4A7.877,7.877,0,0,0,36.3,7.6H33.818V6.01h2.7V4.486h1.56V6.01h3.181V7.6Zm-2.549,11.22,1.01-1.382a36.665,36.665,0,0,1,4.761,2.67l-1.074,1.523A23.541,23.541,0,0,0,35.736,18.822Z" fill="#fff"/><path d="M47.681,6.479l1.137.468a22.158,22.158,0,0,1-1.434,3.887l-.631-.421a37.95,37.95,0,0,1-.19,3.912,14.088,14.088,0,0,1,2.191,4.522l-1.495.913a19.3,19.3,0,0,0-1.074-3.374,18.881,18.881,0,0,1-.8,2.845A16.554,16.554,0,0,1,44.1,21.96l-1.263-1.5a12.125,12.125,0,0,0,1.158-2.214,14.639,14.639,0,0,0,.831-2.752,20.108,20.108,0,0,0,.337-3.326q.053-1.9.054-7.684h1.557q0,3.936-.02,4.733A19.041,19.041,0,0,0,47.681,6.479Zm-3.35.912a50.918,50.918,0,0,1,.379,5.785l-1.327.259A48.323,48.323,0,0,0,43,7.627Zm8.2,7.05h1.643v1.547h3.623v1.64H54.169v2.084H58.72V21.4H47.911V19.712h4.615V17.628H48.9v-1.64h3.623ZM48.5,14.185V8.258h2.761V6.572H48.353V4.884H58.444V6.572H55.432V8.258h2.761v5.927ZM51.262,9.9H50.018v2.647h1.244Zm2.7-3.326H52.735V8.258h1.222Zm0,3.326H52.735v2.647h1.222Zm2.718,0H55.432v2.647h1.243Z" fill="#fff"/><path d="M12.218,3.052A9.948,9.948,0,1,0,22.171,13,9.923,9.923,0,0,0,12.218,3.052ZM19.45,13a7.188,7.188,0,0,1-1.236,4.038L8.181,7.01A7.224,7.224,0,0,1,19.45,13ZM4.986,13A7.15,7.15,0,0,1,6.247,8.922L16.3,18.965A7.226,7.226,0,0,1,4.986,13Z" fill="#c30d23"/><rect x="6.448" y="13.652" width="8.628" height="2.777" fill="#231815"/><rect x="15.596" y="13.652" width="0.936" height="2.777" fill="#231815"/><rect x="17.051" y="13.652" width="0.936" height="2.777" fill="#231815"/><polygon points="14.678 6.56 14.678 8.347 16.532 8.347 16.532 10.096 17.987 10.096 17.987 12.923 17.051 12.923 17.051 11.159 15.596 11.159 15.596 9.366 13.723 9.366 13.723 6.56 14.678 6.56" fill="#231815"/><polygon points="13.301 8.292 13.301 10.147 15.155 10.147 15.155 11.896 16.61 11.896 16.61 12.923 14.219 12.959 14.219 11.166 12.346 11.166 12.346 8.292 13.301 8.292" fill="#231815"/></g></g></svg>